<svg width="554.529" height="138.421" viewBox="0 0 100 36.624"><path d="M87.4 202.262q.345.099.887.148.541.025 1.034.025.985 0 1.626-.395.665-.418.665-1.28 0-.813-.542-1.158t-1.65-.345H87.4zm0-6.01h1.798q1.06 0 1.527-.395.493-.394.493-1.157 0-.665-.567-1.06-.542-.394-1.65-.394-.37 0-.862.025-.468.025-.74.074zm1.6 9.483q-.418 0-.984-.024-.567-.025-1.183-.099-.591-.074-1.182-.197-.591-.098-1.084-.295-1.355-.518-1.355-1.799v-11.504q0-.517.271-.788.296-.295.788-.468.838-.295 2.094-.419 1.256-.147 2.587-.147 3.153 0 4.852 1.059 1.7 1.06 1.7 3.276 0 1.109-.64 1.921-.64.789-1.725 1.158 1.232.345 2.045 1.257.837.911.837 2.29 0 2.44-1.822 3.622-1.799 1.157-5.198 1.157m7.479-13.031q0-1.059.616-1.675t1.675-.616h8.13q.172.271.295.715.148.443.148.936 0 .936-.42 1.33-.393.394-1.058.394h-5.198v2.291h5.542q.173.271.296.714.148.42.148.912 0 .936-.394 1.33t-1.06.394h-4.532v2.587h6.33q.173.27.296.714.148.444.148.936 0 .936-.419 1.355-.394.394-1.059.394h-7.193q-1.06 0-1.675-.616-.616-.616-.616-1.675zm21.362 12.145q-.345.295-1.084.517-.714.222-1.577.222-1.034 0-1.773-.296-.74-.32-1.01-.862-.271-.567-.665-1.454-.394-.911-.838-2.02l-.887-2.34q-.443-1.256-.862-2.537t-.788-2.513-.64-2.315q.344-.345.985-.616.665-.296 1.404-.296.911 0 1.478.395.591.37.862 1.404.665 2.414 1.33 4.63.69 2.193 1.429 4.583h.148q.665-2.316 1.355-5.05.714-2.735 1.354-5.444.444-.222.937-.37.517-.148 1.157-.148.912 0 1.552.42.64.393.64 1.33 0 .541-.27 1.576-.247 1.035-.665 2.34-.395 1.281-.912 2.685-.492 1.404-1.01 2.66-.492 1.232-.936 2.193-.443.936-.714 1.306m14.143.394q-.27.074-.837.148-.567.073-1.109.073-1.133 0-1.7-.37-.566-.393-.566-1.625v-3.325q-.616-.912-1.33-2.02t-1.405-2.267q-.69-1.157-1.28-2.266-.592-1.133-.961-2.07.32-.443.862-.812.567-.37 1.38-.37.96 0 1.551.395.616.394 1.158 1.478l2.045 4.113h.147q.345-.763.592-1.38.27-.64.517-1.255.246-.64.517-1.306.271-.69.616-1.576.444-.222.985-.345.542-.124 1.035-.124.862 0 1.453.469.616.443.616 1.354 0 .296-.123.715t-.566 1.28q-.444.838-1.306 2.292-.838 1.453-2.29 3.793z" style="fill:#ececec" transform="matrix(1.70884 0 0 1.80391 -132.767 -338.718)"/></svg>