<svg xmlns="http://www.w3.org/2000/svg" width="554.529" height="138.421" viewBox="0 0 146.719 36.624"><g style="opacity:1;fill:#787878;fill-opacity:1;stroke-width:.755906;stroke-miterlimit:4;stroke-dasharray:none"><g style="fill:#787878;fill-opacity:1"><path d="M2246.031 2340.191h-.047c-.98 3.068-1.738 6.4-1.883 10.196-.27 7.126.453 11.464-.367 16.08s-3.245 9.16-9.414 16.287c-7.342 8.482-18.979 15.045-32.42 17.264a70 70 0 0 1-7.92 4.363c10.462 3.938 21.403 4.153 30.076 1.307 15.28-5.015 14.097-8.616 20.944-19.108 2.157-3.305 4.647-5.828 7.148-7.9 7.125 3.107 14.143 5.101 18.516 4.607 2.35-5.45-.057-11.771-4.059-17.746 3.282-10.196-1.698-20.406-12.73-24.016-2.878-.941-5.463-1.384-7.844-1.338zm8.276 14.971a4.167 4.245 48.68 0 1 3.197 1.397 4.167 4.245 48.68 0 1-.438 5.933 4.167 4.245 48.68 0 1-5.939-.326 4.167 4.245 48.68 0 1 .437-5.934 4.167 4.245 48.68 0 1 2.743-1.07m-68.375 45.379c.127.075.257.14.384.215l.395-.15c-.26-.024-.519-.04-.78-.065z" style="fill:#787878;fill-opacity:1;stroke:none;stroke-width:.559814px;stroke-linecap:butt;stroke-linejoin:miter;stroke-opacity:1" transform="translate(-551.342 -602.399)scale(.26458)"/></g></g><g style="opacity:1;fill:#ececec;fill-opacity:1;stroke:none;stroke-width:.755906;stroke-miterlimit:4;stroke-dasharray:none;stroke-opacity:1"><g style="opacity:1;fill:#ececec;fill-opacity:1"><path d="M2191.147 2276.783c-5.973-.035-12.098 2.348-17.362 7.46-6.913 6.712-9.06 12.755-7.848 20.294l.333 2.068-2.067-.336c-15.188-2.46-33.985-1.217-55.371 7.434 6.287 2.695 17.826 7.193 30.63 13.342l4.061 1.951-4.414.895c-16.908 3.427-36.973 13.327-55.299 34.933 8.199-.637 24.954-2.609 42.428-2.582 9.714.015 19.287.687 27.086 2.71 7.8 2.021 14.888 6.649 15.886 10.04.999 3.39.432 5.176-.552 7.828s-4.01 6.682-8.195 9.342-9.496 4.985-15.014 6.961c-11.035 3.952-22.78 6.477-27.964 6.959-1.103.102-1.543.498-1.967 1.27-.425.77-.66 1.982-.694 3.25-.046 1.692.217 2.576.695 3.246s1.225.938 1.994.99c32.582 2.205 56.944-5.99 74.638-13.012 20.35-9.33 33.213-27.758 36.005-44.348 1.75-10.394 1.375-15.489-.312-19.828s-4.922-8.191-9.025-15.548c-2.637-4.728-4.108-9.367-5.02-13.688l-.193-.91.726-.582c7.54-6.045 13.681-12.644 15.91-17.45-4.574-4.864-12.478-5.892-21.322-4.947l-.726.076-.512-.521c-4.713-4.8-10.562-7.261-16.535-7.297zm2.648 11.233c2.593-.041 4.88 1.756 5.502 4.322.73 3.021-1.081 6.052-4.047 6.77-2.966.717-5.962-1.15-6.693-4.173-.731-3.021 1.08-6.052 4.047-6.769.39-.094.79-.145 1.19-.15" style="color:#000;font-style:normal;font-variant:normal;font-weight:400;font-stretch:normal;font-size:medium;line-height:normal;font-family:sans-serif;font-variant-ligatures:normal;font-variant-position:normal;font-variant-caps:normal;font-variant-numeric:normal;font-variant-alternates:normal;font-variant-east-asian:normal;font-feature-settings:normal;font-variation-settings:normal;text-indent:0;text-align:start;text-decoration:none;text-decoration-line:none;text-decoration-style:solid;text-decoration-color:#000;letter-spacing:normal;word-spacing:normal;text-transform:none;writing-mode:lr-tb;direction:ltr;text-orientation:mixed;dominant-baseline:auto;baseline-shift:baseline;text-anchor:start;white-space:normal;shape-padding:0;shape-margin:0;inline-size:0;clip-rule:nonzero;display:inline;overflow:visible;visibility:visible;isolation:auto;mix-blend-mode:normal;color-interpolation:sRGB;color-interpolation-filters:linearRGB;solid-color:#000;solid-opacity:1;vector-effect:none;fill:#ececec;fill-opacity:1;fill-rule:nonzero;stroke:none;stroke-width:3.02362;stroke-linecap:butt;stroke-linejoin:miter;stroke-miterlimit:4;stroke-dasharray:none;stroke-dashoffset:0;stroke-opacity:1;color-rendering:auto;image-rendering:auto;shape-rendering:auto;text-rendering:auto;stop-color:#000;stop-opacity:1" transform="translate(-551.342 -602.399)scale(.26458)"/></g></g><g style="opacity:1;fill:#b2b2b2;fill-opacity:1;stroke-width:.755906;stroke-miterlimit:4;stroke-dasharray:none"><g style="fill:#b2b2b2;fill-opacity:1"><g style="opacity:1;fill:#b2b2b2;fill-opacity:1"><path d="M2230.895 2301.174a24.6 24.6 0 0 0-5.979.633c-.14.032-.261.07-.398.103-2.274 2.248-4.813 4.505-7.53 6.717.875 3.86 2.174 7.883 4.471 12.002 3.987 7.15 7.274 10.966 9.203 15.926s2.264 10.794.475 21.424c-2.219 13.178-10.24 27.132-22.96 37.433 9.872-2.88 18.287-8.191 23.858-14.627 6.013-6.946 8.02-10.876 8.723-14.836s.044-8.3.324-15.664c.18-4.745 1.191-8.896 2.477-12.545l.308-.875.922-.12c8.228-1.068 15.665-3.168 19.51-5.65-1.235-5.551-6.48-9.86-13.428-13.134l-.662-.313-.166-.713c-2.203-9.46-9.59-15.563-19.149-15.761m4.783 11.685a4.823 4.914 17.73 0 1 1.447.225 4.823 4.914 17.73 0 1 3.098 6.148 4.823 4.914 17.73 0 1-6.09 3.213 4.823 4.914 17.73 0 1-3.098-6.148 4.823 4.914 17.73 0 1 4.643-3.438" style="color:#000;font-style:normal;font-variant:normal;font-weight:400;font-stretch:normal;font-size:medium;line-height:normal;font-family:sans-serif;font-variant-ligatures:normal;font-variant-position:normal;font-variant-caps:normal;font-variant-numeric:normal;font-variant-alternates:normal;font-variant-east-asian:normal;font-feature-settings:normal;font-variation-settings:normal;text-indent:0;text-align:start;text-decoration:none;text-decoration-line:none;text-decoration-style:solid;text-decoration-color:#000;letter-spacing:normal;word-spacing:normal;text-transform:none;writing-mode:lr-tb;direction:ltr;text-orientation:mixed;dominant-baseline:auto;baseline-shift:baseline;text-anchor:start;white-space:normal;shape-padding:0;shape-margin:0;inline-size:0;clip-rule:nonzero;display:inline;overflow:visible;visibility:visible;isolation:auto;mix-blend-mode:normal;color-interpolation:sRGB;color-interpolation-filters:linearRGB;solid-color:#000;solid-opacity:1;vector-effect:none;fill:#b2b2b2;fill-opacity:1;fill-rule:nonzero;stroke:none;stroke-width:3.02362;stroke-linecap:butt;stroke-linejoin:miter;stroke-miterlimit:4;stroke-dasharray:none;stroke-dashoffset:0;stroke-opacity:1;color-rendering:auto;image-rendering:auto;shape-rendering:auto;text-rendering:auto;stop-color:#000;stop-opacity:1" transform="translate(-551.342 -602.399)scale(.26458)"/></g></g></g><g aria-label="BEVY" style="font-style:normal;font-weight:400;font-size:10.3007px;line-height:1.25;font-family:sans-serif;letter-spacing:0;word-spacing:0;opacity:1;fill:#ececec;fill-opacity:1;stroke:none;stroke-width:.257517;stroke-miterlimit:4;stroke-dasharray:none"><path d="M87.4 202.262q.345.099.887.148.541.025 1.034.025.985 0 1.626-.395.665-.418.665-1.28 0-.813-.542-1.158t-1.65-.345H87.4zm0-6.01h1.798q1.06 0 1.527-.395.493-.394.493-1.157 0-.665-.567-1.06-.542-.394-1.65-.394-.37 0-.862.025-.468.025-.74.074zm1.6 9.483q-.418 0-.984-.024-.567-.025-1.183-.099-.591-.074-1.182-.197-.591-.098-1.084-.295-1.355-.518-1.355-1.799v-11.504q0-.517.271-.788.296-.295.788-.468.838-.295 2.094-.419 1.256-.147 2.587-.147 3.153 0 4.852 1.059 1.7 1.06 1.7 3.276 0 1.109-.64 1.921-.64.789-1.725 1.158 1.232.345 2.045 1.257.837.911.837 2.29 0 2.44-1.822 3.622-1.799 1.157-5.198 1.157M96.48 192.704q0-1.059.616-1.675t1.675-.616h8.13q.172.271.295.715.148.443.148.936 0 .936-.42 1.33-.393.394-1.058.394h-5.198v2.291h5.542q.173.271.296.714.148.42.148.912 0 .936-.394 1.33t-1.06.394h-4.532v2.587h6.33q.173.27.296.714.148.444.148.936 0 .936-.419 1.355-.394.394-1.059.394h-7.193q-1.06 0-1.675-.616-.616-.616-.616-1.675zM117.842 204.849q-.345.295-1.084.517-.714.222-1.577.222-1.034 0-1.773-.296-.74-.32-1.01-.862-.271-.567-.665-1.454-.394-.911-.838-2.02l-.887-2.34q-.443-1.256-.862-2.537t-.788-2.513-.64-2.315q.344-.345.985-.616.665-.296 1.404-.296.911 0 1.478.395.591.37.862 1.404.665 2.414 1.33 4.63.69 2.193 1.429 4.583h.148q.665-2.316 1.355-5.05.714-2.735 1.354-5.444.444-.222.937-.37.517-.148 1.157-.148.912 0 1.552.42.64.393.64 1.33 0 .541-.27 1.576-.247 1.035-.665 2.34-.395 1.281-.912 2.685-.492 1.404-1.01 2.66-.492 1.232-.936 2.193-.443.936-.714 1.306M131.985 205.243q-.27.074-.837.148-.567.073-1.109.073-1.133 0-1.7-.37-.566-.393-.566-1.625v-3.325q-.616-.912-1.33-2.02t-1.405-2.267q-.69-1.157-1.28-2.266-.592-1.133-.961-2.07.32-.443.862-.812.567-.37 1.38-.37.96 0 1.551.395.616.394 1.158 1.478l2.045 4.113h.147q.345-.763.592-1.38.27-.64.517-1.255.246-.64.517-1.306.271-.69.616-1.576.444-.222.985-.345.542-.124 1.035-.124.862 0 1.453.469.616.443.616 1.354 0 .296-.123.715t-.566 1.28q-.444.838-1.306 2.292-.838 1.453-2.29 3.793z" style="font-style:normal;font-variant:normal;font-weight:400;font-stretch:normal;font-size:21.9748px;font-family:&quot;Baloo Bhaijaan&quot;;-inkscape-font-specification:&quot;Baloo Bhaijaan, Normal&quot;;font-variant-ligatures:normal;font-variant-caps:normal;font-variant-numeric:normal;font-feature-settings:normal;text-align:start;writing-mode:lr-tb;text-anchor:start;fill:#ececec;fill-opacity:1;stroke-width:.288674" transform="matrix(1.70884 0 0 1.80391 -86.147 -338.718)"/></g></svg>