<svg viewBox="0 0 38.743439 36.62384">
    <g transform="matrix(0.26458333,0,0,0.26458333,-551.34154,-602.39877)">
        <path
            style="fill:#ececec;stroke:#232326;stroke-width:2.5;"
            d="m 2191.1465,2276.7832 c -5.9729,-0.035 -12.0979,2.348 -17.3613,7.459 -6.9129,6.7127 -9.0602,12.7555 -7.8477,20.2949 l 0.332,2.0684 -2.0664,-0.336 c -15.1877,-2.4609 -33.9847,-1.2178 -55.3711,7.4336 6.2868,2.6948 17.8259,7.1926 30.6309,13.3418 l 4.0605,1.9512 -4.414,0.8945 c -16.9087,3.4274 -36.9729,13.3275 -55.2989,34.9336 8.1981,-0.6372 24.9531,-2.6089 42.4278,-2.582 9.7138,0.015 19.2869,0.687 27.0859,2.709 7.7991,2.022 14.8874,6.6498 15.8861,10.0406 0.9987,3.3908 0.432,5.1761 -0.5519,7.8285 -0.9839,2.6524 -4.0098,6.6817 -8.1953,9.3418 -4.1855,2.6601 -9.4961,4.9849 -15.0137,6.9609 -11.0352,3.9521 -22.7798,6.4773 -27.9648,6.959 -1.1021,0.1024 -1.5421,0.4983 -1.9668,1.2696 -0.4247,0.7712 -0.659,1.9824 -0.6934,3.25 -0.046,1.6926 0.217,2.576 0.6949,3.246 0.4779,0.67 1.2243,0.9381 1.9934,0.9902 32.5822,2.2052 56.9441,-5.9907 74.6379,-13.0116 20.3508,-9.3311 33.2134,-27.7577 36.0058,-44.3477 1.7499,-10.395 1.3746,-15.4894 -0.3124,-19.8281 -1.6873,-4.3387 -4.9223,-8.1914 -9.0254,-15.5488 -2.6368,-4.7281 -4.1077,-9.367 -5.0196,-13.6875 l -0.1933,-0.9102 0.7265,-0.582 c 7.5403,-6.0446 13.6809,-12.6444 15.9102,-17.4492 -4.5742,-4.8648 -12.4787,-5.893 -21.3223,-4.9473 l -0.7265,0.076 -0.5118,-0.5215 c -4.7125,-4.8006 -10.5615,-7.2614 -16.5351,-7.2969 z
            m 2.6484,11.2324 c 1.4354,-0.0227 2.7019,0.9724 3.0458,2.3927 0.4045,1.6727 -0.5985,3.3505 -2.2402,3.7474 -1.6417,0.3972 -3.3007,-0.6367 -3.7053,-2.3094 -0.4045,-1.6727 0.5985,-3.3505 2.2402,-3.7474 0.216,-0.052 0.4372,-0.08 0.6595,-0.0833 z
            "
        />
    </g>
</svg>
