<svg viewBox="0 0 38.74 36.62"><path d="M2191.15 2276.78c-5.98-.03-12.1 2.35-17.36 7.46-6.92 6.71-9.07 12.76-7.85 20.3l.33 2.07-2.07-.34c-15.18-2.46-33.98-1.22-55.37 7.43 6.29 2.7 17.83 7.2 30.63 13.34l4.06 1.96-4.41.9c-16.9 3.42-36.97 13.32-55.3 34.92 8.2-.63 24.95-2.6 42.43-2.58 9.71.02 19.29.69 27.08 2.71 7.8 2.02 14.9 6.65 15.89 10.04 1 3.4.43 5.18-.55 7.83-.99 2.65-4.01 6.68-8.2 9.34s-9.5 4.99-15.01 6.96c-11.04 3.96-22.78 6.48-27.97 6.96-1.1.1-1.54.5-1.96 1.27a8 8 0 0 0-.7 3.25c-.04 1.7.22 2.58.7 3.25s1.22.94 2 .99c32.57 2.2 56.94-6 74.63-13.01 20.35-9.33 33.21-27.76 36-44.35 1.76-10.4 1.38-15.5-.3-19.83-1.7-4.34-4.93-8.2-9.03-15.55a48 48 0 0 1-5.02-13.69l-.2-.9.73-.59c7.54-6.04 13.68-12.64 15.91-17.45-4.57-4.86-12.48-5.89-21.32-4.94l-.73.07-.5-.52c-4.72-4.8-10.57-7.26-16.54-7.3m2.64 11.24a5.6 5.6 0 0 1 5.5 4.32 5.6 5.6 0 0 1-4.04 6.77 5.6 5.6 0 0 1-6.7-4.17 5.58 5.58 0 0 1 5.24-6.92" style="fill:#ececec;stroke:#232326;stroke-width:2.0;" transform="translate(-551.34 -602.4)scale(.26458)"/></svg>
