<svg viewBox="0 0 38.743 36.624"><path d="M2191.147 2276.783c-5.973-.035-12.098 2.348-17.362 7.46-6.913 6.712-9.06 12.755-7.848 20.294l.333 2.068-2.067-.336c-15.188-2.46-33.985-1.217-55.371 7.434 6.287 2.695 17.826 7.193 30.63 13.342l4.061 1.951-4.414.895c-16.908 3.427-36.973 13.327-55.299 34.933 8.199-.637 24.954-2.609 42.428-2.582 9.714.015 19.287.687 27.086 2.71 7.8 2.021 14.888 6.649 15.886 10.04.999 3.39.432 5.176-.552 7.828s-4.01 6.682-8.195 9.342-9.496 4.985-15.014 6.961c-11.035 3.952-22.78 6.477-27.964 6.959-1.103.102-1.543.498-1.967 1.27-.425.77-.66 1.982-.694 3.25-.046 1.692.217 2.576.695 3.246s1.225.938 1.994.99c32.582 2.205 56.944-5.99 74.638-13.012 20.35-9.33 33.213-27.758 36.005-44.348 1.75-10.394 1.375-15.489-.312-19.828s-4.922-8.191-9.025-15.548c-2.637-4.728-4.108-9.367-5.02-13.688l-.193-.91.726-.582c7.54-6.045 13.681-12.644 15.91-17.45-4.574-4.864-12.478-5.892-21.322-4.947l-.726.076-.512-.521c-4.713-4.8-10.562-7.261-16.535-7.297z" style="fill:#ececec;stroke:#232326;stroke-width:3" transform="translate(-551.342 -602.399)scale(.26458)"/><path d="M2193.795 2288.016c2.593-.041 4.88 1.756 5.502 4.322.73 3.021-1.081 6.052-4.047 6.77-2.966.717-5.962-1.15-6.693-4.173-.731-3.021 1.08-6.052 4.047-6.769.39-.094.79-.144 1.19-.15" style="fill:#232326" transform="translate(-551.342 -602.399)scale(.26458)"/></svg>