<?xml version="1.0" encoding="UTF-8" standalone="no"?>
<!-- Created with Inkscape (http://www.inkscape.org/) -->

<svg
   width="100mm"
   height="20mm"
   viewBox="0 0 100 20"
   version="1.1"
   id="svg1"
   inkscape:version="1.4.2 (ebf0e940, 2025-05-08)"
   sodipodi:docname="built.svg"
   xmlns:inkscape="http://www.inkscape.org/namespaces/inkscape"
   xmlns:sodipodi="http://sodipodi.sourceforge.net/DTD/sodipodi-0.dtd"
   xmlns="http://www.w3.org/2000/svg"
   xmlns:svg="http://www.w3.org/2000/svg">
  <sodipodi:namedview
     id="namedview1"
     pagecolor="#ffffff"
     bordercolor="#000000"
     borderopacity="0.25"
     inkscape:showpageshadow="2"
     inkscape:pageopacity="0.0"
     inkscape:pagecheckerboard="0"
     inkscape:deskcolor="#d1d1d1"
     inkscape:document-units="mm"
     inkscape:zoom="0.95846415"
     inkscape:cx="319.78244"
     inkscape:cy="254.57395"
     inkscape:window-width="1504"
     inkscape:window-height="821"
     inkscape:window-x="1766"
     inkscape:window-y="76"
     inkscape:window-maximized="0"
     inkscape:current-layer="layer1" />
  <defs
     id="defs1">
    <rect
       x="63.643486"
       y="213.88385"
       width="37.560089"
       height="81.380196"
       id="rect2" />
  </defs>
  <g
     inkscape:label="Layer 1"
     inkscape:groupmode="layer"
     id="layer1">
    <path
       d="m 21.718894,7.5010919 v 0 q 0.931332,0 1.693332,0.4092219 0.761999,0.4092219 1.199443,1.2135546 0.451555,0.8043327 0.451555,1.9896656 0,1.171221 -0.479777,2.003776 -0.465666,0.818444 -1.326443,1.255888 -0.860778,0.423333 -2.017888,0.423333 -0.931332,0 -1.580443,-0.225778 -0.649111,-0.225778 -1.100666,-0.536222 -0.296333,-0.211666 -0.465666,-0.493888 -0.155222,-0.282222 -0.155222,-0.635 V 8.50298 h 2.384776 v 4.190997 q 0.155222,0.08467 0.366888,0.155222 0.225778,0.05644 0.522111,0.05644 0.635,0 1.015999,-0.451555 0.381,-0.465666 0.381,-1.340554 0,-0.903111 -0.366889,-1.3123328 -0.352777,-0.423333 -0.973666,-0.423333 -0.423333,0 -0.747888,0.1552221 -0.324555,0.1552221 -0.564444,0.3386664 V 7.938536 q 0.324555,-0.1693332 0.776111,-0.2963331 0.451555,-0.141111 0.987777,-0.141111 z M 20.336006,9.0815351 H 17.937119 V 5.3703158 q 0.155222,-0.042333 0.437444,-0.084667 0.296333,-0.042333 0.634999,-0.042333 0.705555,0 1.016,0.2398887 0.310444,0.2257776 0.310444,0.8889993 z m 5.898442,2.7657759 v -0.931333 h 2.398887 v 0.931333 q 0,0.564444 0.282222,0.818444 0.296333,0.253999 0.818443,0.253999 0.324556,0 0.536222,-0.05644 0.211667,-0.05644 0.310445,-0.112889 v -1.834443 h 2.398887 v 2.187221 q 0,0.352777 -0.155223,0.620888 -0.141111,0.254 -0.437444,0.437444 -0.493888,0.310444 -1.185332,0.465666 -0.677333,0.169334 -1.481666,0.169334 -1.015999,0 -1.80622,-0.296333 -0.790222,-0.310445 -1.241777,-0.959555 -0.437444,-0.649111 -0.437444,-1.693332 z m 6.745106,-0.324556 H 30.580667 V 7.7409806 q 0.155222,-0.042333 0.437444,-0.084667 0.296333,-0.042333 0.634999,-0.042333 0.705555,0 1.015999,0.2398887 0.310445,0.2257776 0.310445,0.8889993 z m -4.346219,0 H 26.234448 V 7.7409806 q 0.155222,-0.042333 0.437444,-0.084667 0.296333,-0.042333 0.634999,-0.042333 0.705555,0 1.015999,0.2398887 0.310445,0.2257776 0.310445,0.8889993 z m 5.757339,-5.7149951 v 0 q 0,-0.5362218 0.366888,-0.9031104 0.366889,-0.3668886 0.945444,-0.3668886 0.578555,0 0.945444,0.3668886 0.366888,0.3668886 0.366888,0.9031104 0,0.5221107 -0.366888,0.9031104 -0.366889,0.3668886 -0.945444,0.3668886 -0.578555,0 -0.945444,-0.3668886 -0.366888,-0.3809997 -0.366888,-0.9031104 z m 0.112888,5.0376631 h 2.398887 v 3.711219 q -0.155222,0.04233 -0.451555,0.08467 -0.282222,0.04233 -0.620888,0.04233 -0.691444,0 -1.015999,-0.239889 -0.310445,-0.239889 -0.310445,-0.888999 z m 2.398887,1.255888 H 34.503562 V 7.8115361 q 0.155222,-0.042333 0.437444,-0.084667 0.296334,-0.042333 0.635,-0.042333 0.705555,0 1.015999,0.2398887 0.310444,0.2257776 0.310444,0.8889993 z m 1.594549,-1.255888 h 2.398887 v 3.711219 q -0.155222,0.04233 -0.451555,0.08467 -0.282222,0.04233 -0.620889,0.04233 -0.691444,0 -1.015999,-0.239889 -0.310444,-0.239889 -0.310444,-0.888999 z m 2.398887,1.255888 H 38.496998 V 5.3703158 q 0.155222,-0.042333 0.437444,-0.084667 0.296333,-0.042333 0.634999,-0.042333 0.705555,0 1.016,0.2398887 0.310444,0.2257776 0.310444,0.8889993 z m 1.566338,-1.255888 h 2.370665 v 1.368776 q 0,0.352778 0.225778,0.522111 0.239888,0.155222 0.663221,0.155222 0.211667,0 0.437445,-0.02822 0.225777,-0.04233 0.39511,-0.09878 0.127,0.141111 0.211667,0.338667 0.09878,0.197555 0.09878,0.465666 0,0.522111 -0.409222,0.874888 -0.395111,0.338667 -1.41111,0.338667 -1.241777,0 -1.91911,-0.564444 -0.663222,-0.564444 -0.663222,-1.834443 z m 1.552221,-1.1429995 v -1.834443 h 2.666998 q 0.08467,0.141111 0.155222,0.3809997 0.08467,0.2398887 0.08467,0.5221107 0,0.4938885 -0.225778,0.7196661 -0.211666,0.2116665 -0.578555,0.2116665 z m 0.818444,1.4816655 H 42.462223 V 6.1182041 q 0.155222,-0.042333 0.437444,-0.084667 0.296334,-0.056444 0.620889,-0.056444 0.691444,0 1.001888,0.2398887 0.310444,0.2398887 0.310444,0.8889993 z"
       id="text1"
       style="font-weight:800;font-size:14.1111px;font-family:'Baloo Bhaijaan 2';-inkscape-font-specification:'Baloo Bhaijaan 2 Ultra-Bold';fill:#78787f;stroke-width:0.264583"
       aria-label="built&#10;" />
    <text
       xml:space="preserve"
       transform="scale(0.26458333)"
       id="text2"
       style="font-style:normal;font-variant:normal;font-weight:800;font-stretch:normal;font-size:53.3333px;font-family:'Baloo Bhaijaan 2';-inkscape-font-specification:'Baloo Bhaijaan 2 Ultra-Bold';text-align:start;writing-mode:lr-tb;direction:ltr;white-space:pre;shape-inside:url(#rect2);display:inline;fill:#000000;fill-opacity:1" />
  </g>
</svg>
