<svg width="100mm" height="20mm" viewBox="0 0 100 20"><defs><path id="a" d="M63.643 213.884h37.56v81.38h-37.56z"/></defs><path d="M21.719 7.501q.931 0 1.693.41.762.409 1.2 1.213.451.804.451 1.99 0 1.17-.48 2.003-.465.819-1.326 1.256-.86.424-2.018.424-.931 0-1.58-.226-.65-.226-1.101-.536-.296-.212-.466-.494-.155-.283-.155-.635V8.503h2.385v4.191q.155.085.367.155.226.057.522.057.635 0 1.016-.452.38-.466.38-1.34 0-.904-.366-1.313-.353-.423-.974-.423-.423 0-.748.155-.324.155-.564.339V7.939q.325-.17.776-.297.452-.14.988-.14m-1.383 1.58h-2.399v-3.71q.155-.043.438-.085.296-.043.635-.043.705 0 1.016.24.31.226.31.89zm5.898 2.766v-.931h2.4v.931q0 .565.282.819.296.254.818.254.325 0 .536-.057.212-.056.31-.113v-1.834h2.4v2.187q0 .353-.156.621-.14.254-.437.438-.494.31-1.185.465-.678.17-1.482.17-1.016 0-1.806-.297-.79-.31-1.242-.96-.438-.648-.438-1.693m6.746-.324h-2.4V7.74q.156-.042.438-.085.296-.042.635-.042.706 0 1.016.24.31.226.31.889zm-4.347 0h-2.399V7.74q.156-.042.438-.085.296-.042.635-.042.705 0 1.016.24.31.226.31.889zm5.758-5.715q0-.536.367-.903.366-.367.945-.367t.945.367.367.903q0 .522-.367.903-.366.367-.945.367t-.945-.367q-.367-.381-.367-.903m.113 5.037h2.398v3.712q-.155.042-.451.084-.282.043-.621.043-.691 0-1.016-.24-.31-.24-.31-.89zm2.398 1.256h-2.398v-4.29q.155-.042.437-.084.296-.042.635-.042.706 0 1.016.24.31.225.31.888zm1.595-1.256h2.399v3.712q-.155.042-.452.084-.282.043-.62.043-.692 0-1.017-.24-.31-.24-.31-.89zm2.399 1.256h-2.399v-6.73q.155-.043.437-.085.297-.043.635-.043.706 0 1.016.24.31.226.31.89zm1.566-1.256h2.37v1.37q0 .352.227.521.24.156.663.156.212 0 .437-.029.226-.042.395-.098.127.14.212.338.099.198.099.466 0 .522-.41.875-.394.338-1.41.338-1.242 0-1.92-.564-.663-.564-.663-1.834zm1.552-1.143V7.868h2.667q.085.141.156.381.084.24.084.522 0 .494-.225.72-.212.211-.579.211zm.819 1.482h-2.37V6.118q.154-.042.437-.084.296-.057.62-.057.692 0 1.002.24t.31.889z" style="fill:#78787f;"/></svg>
