<?xml version="1.0" encoding="UTF-8" standalone="no"?>
<!-- Created with Inkscape (http://www.inkscape.org/) -->

<svg
   width="100mm"
   height="20mm"
   viewBox="0 0 100 20"
   version="1.1"
   id="svg1"
   inkscape:version="1.4.2 (ebf0e940, 2025-05-08)"
   sodipodi:docname="with.svg"
   xmlns:inkscape="http://www.inkscape.org/namespaces/inkscape"
   xmlns:sodipodi="http://sodipodi.sourceforge.net/DTD/sodipodi-0.dtd"
   xmlns="http://www.w3.org/2000/svg"
   xmlns:svg="http://www.w3.org/2000/svg">
  <sodipodi:namedview
     id="namedview1"
     pagecolor="#ffffff"
     bordercolor="#000000"
     borderopacity="0.25"
     inkscape:showpageshadow="2"
     inkscape:pageopacity="0.0"
     inkscape:pagecheckerboard="0"
     inkscape:deskcolor="#d1d1d1"
     inkscape:document-units="mm"
     inkscape:zoom="0.95846415"
     inkscape:cx="319.78243"
     inkscape:cy="254.57394"
     inkscape:window-width="1496"
     inkscape:window-height="821"
     inkscape:window-x="1766"
     inkscape:window-y="104"
     inkscape:window-maximized="0"
     inkscape:current-layer="layer1" />
  <defs
     id="defs1">
    <rect
       x="63.643486"
       y="213.88385"
       width="37.560089"
       height="81.380196"
       id="rect2" />
  </defs>
  <g
     inkscape:label="Layer 1"
     inkscape:groupmode="layer"
     id="layer1">
    <path
       d="m 22.819559,10.718423 v 0 q -0.126999,0.64911 -0.338666,1.354665 -0.197555,0.705555 -0.381,1.312333 -0.183444,0.606777 -0.282222,0.945443 -0.183444,0.169334 -0.536221,0.268111 -0.338667,0.112889 -0.804333,0.112889 -0.564444,0 -1.001888,-0.155222 -0.423333,-0.169333 -0.564444,-0.465666 -0.127,-0.282222 -0.282222,-0.790222 -0.155222,-0.522111 -0.324556,-1.185332 -0.155222,-0.677333 -0.310444,-1.396999 -0.155222,-0.7337775 -0.282222,-1.4111103 -0.127,-0.6914439 -0.211666,-1.2417768 0.197555,-0.1975554 0.52211,-0.3386664 0.338667,-0.1552221 0.733778,-0.1552221 0.493888,0 0.804332,0.2257776 0.324556,0.2116665 0.395111,0.7478883 0.141111,1.0724436 0.239889,1.7779987 0.09878,0.705555 0.155222,1.142999 0.07055,0.423333 0.09878,0.663222 0.04233,0.239888 0.07055,0.380999 h 0.05645 q 0.07056,-0.310444 0.225777,-0.945443 0.155222,-0.649111 0.366889,-1.481666 0.211666,-0.8325547 0.409222,-1.6792207 0.282222,-0.1552221 0.564444,-0.2398887 0.282222,-0.084667 0.677332,-0.084667 0.493889,0 0.846666,0.1552221 0.352778,0.1552221 0.451556,0.4797774 0.225777,0.8184438 0.423333,1.5804435 0.197555,0.761999 0.338666,1.340554 0.155222,0.578555 0.211667,0.874888 h 0.07056 q 0.155222,-1.086554 0.296333,-2.257776 0.155222,-1.185332 0.282222,-2.3847755 0.508,-0.2963331 1.100666,-0.2963331 0.493889,0 0.818444,0.2116665 0.324555,0.2116665 0.324555,0.7337772 0,0.2257776 -0.07055,0.6773328 -0.07056,0.4374441 -0.183445,1.0018881 -0.112888,0.564444 -0.268111,1.185332 -0.141111,0.620889 -0.296333,1.199444 -0.141111,0.578555 -0.282222,1.044221 -0.127,0.451556 -0.225777,0.705555 -0.183445,0.169334 -0.606778,0.268111 -0.409221,0.112889 -0.874888,0.112889 -1.185332,0 -1.396999,-0.592666 -0.112889,-0.338667 -0.296333,-0.888999 -0.183444,-0.564444 -0.366888,-1.227666 -0.169334,-0.663222 -0.296334,-1.28411 z m 6.194778,-4.9106631 v 0 q 0,-0.5362218 0.366889,-0.9031104 0.366889,-0.3668886 0.945444,-0.3668886 0.578555,0 0.945444,0.3668886 0.366888,0.3668886 0.366888,0.9031104 0,0.5221107 -0.366888,0.9031104 -0.366889,0.3668886 -0.945444,0.3668886 -0.578555,0 -0.945444,-0.3668886 -0.366889,-0.3809997 -0.366889,-0.9031104 z m 0.112889,5.0376631 h 2.398887 v 3.711219 q -0.155222,0.04233 -0.451555,0.08467 -0.282222,0.04233 -0.620888,0.04233 -0.691444,0 -1.016,-0.239889 -0.310444,-0.239889 -0.310444,-0.888999 z m 2.398887,1.255888 H 29.127226 V 7.8115361 q 0.155222,-0.042333 0.437444,-0.084667 0.296333,-0.042333 0.635,-0.042333 0.705555,0 1.015999,0.2398887 0.310444,0.2257776 0.310444,0.8889993 z m 1.552215,-1.255888 h 2.370665 v 1.368776 q 0,0.352778 0.225778,0.522111 0.239889,0.155222 0.663222,0.155222 0.211666,0 0.437444,-0.02822 0.225777,-0.04233 0.39511,-0.09878 0.127,0.141111 0.211667,0.338667 0.09878,0.197555 0.09878,0.465666 0,0.522111 -0.409222,0.874888 -0.395111,0.338667 -1.41111,0.338667 -1.241777,0 -1.91911,-0.564444 -0.663222,-0.564444 -0.663222,-1.834443 z m 1.552221,-1.1429995 v -1.834443 h 2.666998 q 0.08467,0.141111 0.155222,0.3809997 0.08467,0.2398887 0.08467,0.5221107 0,0.4938885 -0.225778,0.7196661 -0.211666,0.2116665 -0.578555,0.2116665 z m 0.818444,1.4816655 H 33.078328 V 6.1182041 q 0.155223,-0.042333 0.437445,-0.084667 0.296333,-0.056444 0.620888,-0.056444 0.691444,0 1.001888,0.2398887 0.310444,0.2398887 0.310444,0.8889993 z m 9.976539,0.493889 H 43.026645 V 10.42209 q 0,-0.5785555 -0.296333,-0.8043331 -0.282222,-0.2398887 -0.705555,-0.2398887 -0.423333,0 -0.747889,0.1552221 -0.324555,0.1552221 -0.564444,0.3386664 V 7.938536 q 0.324556,-0.1693332 0.776111,-0.2963331 0.451555,-0.141111 0.987777,-0.141111 1.382888,0 2.158998,0.705555 0.790222,0.6914439 0.790222,2.0743321 z m -6.745106,-0.832555 h 2.398887 v 3.711219 q -0.155222,0.04233 -0.451555,0.08467 -0.282222,0.04233 -0.620889,0.04233 -0.691444,0 -1.015999,-0.239889 -0.310444,-0.239889 -0.310444,-0.888999 z m 4.346219,0 h 2.398887 v 3.711219 q -0.155222,0.04233 -0.451555,0.08467 -0.282222,0.04233 -0.620889,0.04233 -0.691444,0 -1.015999,-0.239889 -0.310444,-0.239889 -0.310444,-0.888999 z m -1.947332,1.255888 H 38.680426 V 5.3703158 q 0.155222,-0.042333 0.437444,-0.084667 0.296333,-0.042333 0.635,-0.042333 0.705555,0 1.015999,0.2398887 0.310444,0.2257776 0.310444,0.8889993 z"
       id="text1"
       style="font-weight:800;font-size:14.1111px;font-family:'Baloo Bhaijaan 2';-inkscape-font-specification:'Baloo Bhaijaan 2 Ultra-Bold';fill:#78787f;stroke-width:0.264583"
       aria-label="with&#10;" />
  </g>
</svg>
