<svg width="100mm" height="20mm" viewBox="0 0 100 20"><path d="M22.82 10.718q-.127.65-.34 1.355-.197.706-.38 1.312-.184.607-.282.946-.184.17-.537.268-.338.113-.804.113-.564 0-1.002-.155-.423-.17-.564-.466-.127-.282-.282-.79-.156-.522-.325-1.186-.155-.677-.31-1.397-.156-.733-.283-1.41-.127-.692-.211-1.242.197-.198.522-.34.338-.154.734-.154.493 0 .804.225.324.212.395.748.141 1.073.24 1.778t.155 1.143q.07.424.099.664.042.24.07.38h.057q.07-.31.226-.945.155-.649.367-1.482.211-.832.409-1.679.282-.155.564-.24t.678-.084q.493 0 .846.155t.452.48q.226.818.423 1.58.198.762.339 1.34.155.58.211.876h.071q.155-1.087.296-2.258.156-1.186.283-2.385.508-.296 1.1-.296.494 0 .819.211.324.212.324.734 0 .226-.07.677-.07.438-.184 1.002t-.268 1.186q-.141.62-.296 1.2-.141.578-.282 1.043-.127.452-.226.706-.184.17-.607.268-.41.113-.875.113-1.185 0-1.397-.593l-.296-.889q-.184-.564-.367-1.227-.17-.664-.296-1.285m6.194-4.91q0-.536.367-.903t.946-.367.945.367.367.903q0 .522-.367.903-.367.367-.945.367-.579 0-.946-.367-.367-.381-.367-.903m.113 5.037h2.4v3.712q-.156.042-.452.084-.283.043-.621.043-.692 0-1.016-.24-.31-.24-.31-.89zm2.4 1.256h-2.4v-4.29q.155-.042.438-.084.296-.042.635-.042.705 0 1.016.24.31.225.31.888zm1.551-1.256h2.371v1.37q0 .352.226.521.24.156.663.156.212 0 .437-.029.226-.042.396-.098.127.14.211.338.099.198.099.466 0 .522-.41.875-.394.338-1.41.338-1.242 0-1.92-.564-.663-.564-.663-1.834zm1.553-1.143V7.868h2.667q.084.141.155.381.084.24.084.522 0 .494-.225.72-.212.211-.579.211zm.818 1.482h-2.37V6.118q.155-.042.437-.084.296-.057.62-.057.692 0 1.003.24t.31.889zm9.977.494h-2.4v-1.256q0-.578-.296-.804-.282-.24-.705-.24-.424 0-.748.155-.325.155-.565.339V7.939q.325-.17.777-.297.451-.14.987-.14 1.383 0 2.16.705.79.691.79 2.074zm-6.746-.833h2.4v3.712q-.156.042-.452.084-.282.043-.621.043-.692 0-1.016-.24-.31-.24-.31-.89zm4.347 0h2.399v3.712q-.156.042-.452.084-.282.043-.62.043-.692 0-1.017-.24-.31-.24-.31-.89zm-1.948 1.256H38.68v-6.73q.156-.043.438-.085.296-.043.635-.043.705 0 1.016.24.31.226.31.89z" aria-label="with" style="fill:#78787f;"/></svg>
